<svg xmlns="http://www.w3.org/2000/svg" xmlns:xlink="http://www.w3.org/1999/xlink" xmlns:inkscape="http://www.inkscape.org/namespaces/inkscape" version="1.1" width="595.28" height="841.89" viewBox="0 0 595.28 841.89">
<defs>
<clipPath id="clip_1">
<path transform="matrix(1,0,0,-1,0,841.89)" d="M0 841.89H595.28V0H0Z"/>
</clipPath>
</defs>
<g inkscape:groupmode="layer" inkscape:label="Livello 1">

<g clip-path="url(#clip_1)">
<path transform="matrix(1,0,0,-1,282.6455,433.98963)" d="M0 0C0 0 .17-.064 .502-.185 .672-.249 .877-.325 1.121-.415 1.365-.503 1.649-.603 1.971-.715 3.264-1.154 5.166-1.771 7.627-2.348 10.088-2.928 13.105-3.456 16.592-3.772 20.075-4.093 24.021-4.2 28.323-4.021 29.396-3.979 30.496-3.918 31.613-3.852 32.73-3.767 33.869-3.687 35.027-3.574 36.182-3.471 37.358-3.347 38.552-3.214 39.747-3.073 40.957-2.928 42.182-2.762 47.095-2.107 52.256-1.239 57.605-.259 62.95 .715 68.482 1.8 74.139 2.856 79.791 3.909 85.567 4.941 91.406 5.791 97.24 6.636 103.133 7.304 108.992 7.631 114.848 7.954 120.667 7.921 126.282 7.403 131.899 6.89 137.307 5.882 142.271 4.363 142.429 4.319 142.582 4.274 142.735 4.225 142.889 4.179 143.04 4.13 143.195 4.079 143.502 3.976 143.809 3.88 144.11 3.785 144.415 3.677 144.714 3.578 145.014 3.47 145.312 3.366 145.615 3.263 145.907 3.151 146.201 3.042 146.495 2.934 146.788 2.823 147.078 2.716 147.365 2.594 147.658 2.483 148.234 2.257 148.798 2.012 149.356 1.775 149.637 1.657 149.908 1.53 150.187 1.407 150.461 1.278 150.732 1.153 151.002 1.034 151.277 .903 151.545 .776 151.808 .646 152.075 .519 152.34 .392 152.602 .255 153.121-.015 153.638-.271 154.143-.55 154.394-.685 154.645-.823 154.893-.955 155.138-1.101 155.386-1.239 155.629-1.38 159.52-3.624 162.791-6.098 165.47-8.493 165.636-8.64 165.802-8.787 165.965-8.933 166.131-9.085 166.286-9.232 166.448-9.38 166.605-9.528 166.761-9.676 166.916-9.821 166.993-9.894 167.069-9.968 167.15-10.038 167.223-10.112 167.3-10.189 167.374-10.263 167.672-10.552 167.967-10.843 168.253-11.124 168.53-11.414 168.8-11.696 169.068-11.978 169.336-12.251 169.595-12.528 169.844-12.807 170.088-13.075 170.335-13.343 170.568-13.606 170.797-13.872 171.022-14.132 171.24-14.386 171.352-14.514 171.46-14.638 171.565-14.765 171.671-14.887 171.771-15.011 171.874-15.138 172.077-15.382 172.27-15.622 172.463-15.853 172.653-16.08 172.829-16.318 173.006-16.54 173.354-16.983 173.677-17.401 173.969-17.802 174.109-17.999 174.248-18.188 174.388-18.372 174.524-18.554 174.654-18.728 174.767-18.897 175.007-19.241 175.223-19.552 175.415-19.831 175.607-20.108 175.773-20.356 175.912-20.573 176.056-20.788 176.174-20.97 176.267-21.112 176.457-21.405 176.557-21.558 176.557-21.558 176.557-21.558 176.056-21.036 175.119-20.054 174.178-19.089 172.777-17.688 170.921-15.999 170.805-15.897 170.685-15.792 170.568-15.683 170.448-15.575 170.324-15.472 170.196-15.358 169.951-15.14 169.698-14.924 169.434-14.692 169.177-14.468 168.898-14.245 168.623-14.013 168.484-13.898 168.344-13.78 168.203-13.66 168.062-13.544 167.915-13.424 167.768-13.306 166.604-12.354 165.302-11.377 163.885-10.382 161.051-8.396 157.7-6.38 153.861-4.61 150.02-2.835 145.686-1.313 140.97-.222 136.261 .889 131.17 1.548 125.863 1.813 120.554 2.075 115.029 1.931 109.415 1.507 103.796 1.079 98.082 .377 92.365-.45 86.645-1.282 80.918-2.244 75.256-3.175 69.595-4.11 63.995-5.024 58.537-5.782 53.078-6.534 47.76-7.138 42.682-7.478 40.139-7.651 37.659-7.755 35.256-7.784 32.858-7.821 30.529-7.782 28.301-7.666 23.84-7.448 19.76-6.918 16.209-6.177 15.989-6.126 15.766-6.083 15.546-6.036 15.332-5.987 15.117-5.938 14.903-5.891 14.692-5.841 14.477-5.791 14.268-5.741 14.059-5.691 13.851-5.636 13.646-5.584 13.44-5.532 13.242-5.484 13.039-5.433 12.838-5.372 12.641-5.321 12.442-5.269 12.051-5.157 11.663-5.052 11.29-4.937 9.792-4.491 8.433-4.021 7.233-3.55 7.082-3.491 6.935-3.433 6.788-3.38 6.641-3.319 6.5-3.259 6.356-3.201 6.077-3.083 5.804-2.974 5.538-2.861 5.015-2.623 4.523-2.414 4.071-2.19 3.85-2.087 3.633-1.979 3.425-1.884 3.216-1.78 3.02-1.677 2.83-1.585 2.645-1.485 2.464-1.395 2.294-1.304 2.126-1.216 1.969-1.125 1.817-1.046 1.515-.881 1.25-.735 1.021-.606 .798-.475 .611-.362 .462-.273 .16-.093 0 0 0 0" fill="#2f3640"/>
<path transform="matrix(1,0,0,-1,287.4365,385.52534)" d="M0 0-.14-34.85-4.361-34.837-4.184 10.021 .037 10.005 .028 7.123C3.885 10.828 8.368 12.667 13.467 12.648 18.91 12.628 23.329 10.952 26.725 7.627 30.123 4.289 31.859 .092 31.934-4.961L31.813-34.97 27.591-34.954 27.707-5.309C27.72-1.506 26.318 1.75 23.497 4.455 20.679 7.164 17.331 8.526 13.452 8.541 9.571 8.551 6.22 7.238 3.394 4.6 1.855 3.116 .723 1.581 0 0" fill="#2f3640"/>
<path transform="matrix(1,0,0,-1,315.0732,420.4335)" d="M0 0 4.135-.017 4.251 29.947C4.177 34.969 2.428 39.19-.94 42.501-4.313 45.807-8.767 47.492-14.17 47.515H-14.246C-19.277 47.515-23.767 45.662-27.577 42.001L-27.656 41.928-27.646 44.87-31.781 44.889-31.951 .116-27.817 .1-27.685 34.92-27.681 34.924C-26.953 36.507-25.81 38.057-24.274 39.537-21.467 42.161-18.094 43.485-14.246 43.485H-14.185C-10.314 43.474-6.92 42.094-4.108 39.397-1.293 36.7 .13 33.402 .116 29.599ZM4.223-.104-.09-.087 .024 29.599C.039 33.377-1.372 36.652-4.171 39.338-6.966 42.016-10.335 43.39-14.185 43.404H-14.246C-18.073 43.404-21.424 42.083-24.213 39.478-25.737 38.009-26.873 36.466-27.592 34.897L-27.729 .017-32.042 .031-32.04 .071-31.868 44.969-27.555 44.954-27.566 42.135C-23.748 45.761-19.269 47.601-14.246 47.601H-14.17C-8.739 47.578-4.271 45.883-.883 42.56 2.513 39.238 4.268 34.989 4.338 29.95Z" fill="#2f3640"/>
<path transform="matrix(1,0,0,-1,328.5635,426.8334)" d="M0 0C3.785 .415 5.687 2.476 5.703 6.193L5.875 51.135 10.098 51.125 9.926 6.268C9.901-.159 6.586-3.62-.015-4.108Z" fill="#2f3640"/>
<path transform="matrix(1,0,0,-1,328.6064,426.8685)" d="M0 0-.013-4.032C3.236-3.774 5.71-2.784 7.345-1.081 8.986 .63 9.825 3.116 9.838 6.303L10.014 51.117 5.878 51.134 5.702 6.228C5.689 2.517 3.769 .423 0 0M-.104-4.123-.087 .07-.05 .075C1.825 .282 3.247 .901 4.189 1.923 5.128 2.942 5.606 4.39 5.615 6.228L5.789 51.219 10.103 51.202V51.156L9.929 6.303C9.912 3.091 9.068 .591 7.409-1.142 5.756-2.87 3.24-3.872-.056-4.116Z" fill="#2f3640"/>
<path transform="matrix(1,0,0,-1,362.708,382.1942)" d="M0 0C-4.175-4.037-6.275-8.915-6.297-14.643-6.319-20.363-4.258-25.252-.114-29.301 4.034-33.354 9.039-35.388 14.924-35.409 20.804-35.425 25.832-33.432 30.007-29.413 34.184-25.396 36.285-20.522 36.308-14.797 36.328-9.069 34.265-4.178 30.121-.112 25.981 3.955 20.963 5.997 15.088 6.02 9.203 6.042 4.177 4.037 0 0M15.104 10.405C22.233 10.379 28.302 7.907 33.302 2.982 38.303-1.936 40.789-7.87 40.765-14.816 40.737-21.726 38.203-27.623 33.165-32.506 28.124-37.39 22.043-39.822 14.907-39.793 7.807-39.771 1.744-37.294-3.271-32.375-8.285-27.457-10.782-21.536-10.755-14.627-10.729-7.683-8.187-1.767-3.133 3.118 1.921 8.002 7.999 10.431 15.104 10.405" fill="#2f3640"/>
<path transform="matrix(1,0,0,-1,377.6982,376.21623)" d="M0 0C-5.802 0-10.83-2.019-14.959-6.007-19.107-10.02-21.217-14.933-21.245-20.621-21.266-26.304-19.19-31.229-15.075-35.25-10.956-39.27-5.909-41.323-.066-41.341H.029C5.83-41.341 10.865-39.332 14.988-35.362 19.136-31.365 21.249-26.459 21.274-20.775 21.295-15.091 19.219-10.159 15.104-6.119 10.982-2.082 5.937-.021 .098 0ZM.029-41.433V-41.433H-.068C-5.935-41.403-11.006-39.35-15.133-35.31-19.269-31.272-21.354-26.33-21.332-20.621-21.31-14.907-19.186-9.971-15.021-5.949-10.878-1.945-5.822 .086 0 .086H.098C5.963 .064 11.03-2.004 15.164-6.06 19.3-10.115 21.382-15.067 21.363-20.775 21.338-26.481 19.215-31.409 15.05-35.42 10.91-39.41 5.859-41.433 .029-41.433M0 4.385C-3.506 4.385-6.805 3.771-9.807 2.565-12.807 1.359-15.594-.477-18.092-2.893-20.599-5.316-22.518-8.04-23.777-10.975-25.037-13.916-25.687-17.153-25.7-20.605-25.715-24.039-25.091-27.265-23.852-30.207-22.61-33.149-20.721-35.88-18.23-38.318-15.734-40.768-12.945-42.63-9.935-43.856-6.925-45.085-3.609-45.717-.083-45.729H.033C3.547-45.729 6.857-45.116 9.862-43.913 12.864-42.707 15.65-40.869 18.146-38.453 20.648-36.029 22.553-33.311 23.814-30.381 25.069-27.456 25.716-24.225 25.729-20.789 25.745-17.342 25.123-14.096 23.887-11.152 22.651-8.203 20.767-5.472 18.28-3.026 15.796-.58 13.009 1.285 9.99 2.512 6.982 3.738 3.654 4.371 .113 4.382ZM.033-45.814H-.083C-3.624-45.8-6.949-45.17-9.97-43.936-12.991-42.707-15.79-40.833-18.291-38.38-20.792-35.927-22.691-33.19-23.935-30.236-25.178-27.288-25.804-24.046-25.789-20.605-25.774-17.139-25.128-13.894-23.86-10.945-22.594-7.995-20.67-5.265-18.158-2.83-15.647-.41-12.85 1.433-9.838 2.643-6.825 3.857-3.519 4.471 0 4.471H.113C3.669 4.457 7.003 3.827 10.027 2.591 13.055 1.359 15.85-.514 18.345-2.967 20.837-5.417 22.729-8.161 23.968-11.118 25.211-14.075 25.832-17.331 25.817-20.794 25.808-24.239 25.156-27.476 23.895-30.418 22.633-33.356 20.715-36.083 18.203-38.515 15.705-40.938 12.912-42.779 9.896-43.989 6.879-45.199 3.563-45.814 .033-45.814" fill="#2f3640"/>
<path transform="matrix(1,0,0,-1,430.2822,416.88414)" d="M0 0-10.5-21.114-14.627-21.099-2.097 4.256-19.925 40.914-15.139 40.895 .033 8.677 15.457 40.78 20.189 40.762 0-.043Z" fill="#2f3640"/>
<path transform="matrix(1,0,0,-1,415.7256,437.9359)" d="M0 0 4.027-.018 14.599 21.245V21.199L34.673 61.773 30.038 61.787 14.59 29.625 14.547 29.714-.611 61.902-5.296 61.917 12.508 25.308 12.5 25.285ZM4.082-.1-.141-.088-.114-.023 12.413 25.308-5.44 62.006-.553 61.987-.543 61.965 14.59 29.833 29.984 61.873 34.816 61.854 34.787 61.799 14.508 20.815V20.863Z" fill="#2f3640"/>
<path transform="matrix(1,0,0,-1,306.4453,345.18544)" d="M0 0-.012-3.822C.342-5.572 1.196-7.112 2.56-8.444 4.401-10.254 6.63-11.16 9.247-11.171 11.868-11.179 14.104-10.291 15.958-8.493 17.818-6.698 18.747-4.526 18.762-1.979 18.771 .566 17.855 2.745 16.01 4.555 14.166 6.364 11.937 7.274 9.321 7.282 6.701 7.289 4.468 6.401 2.606 4.603 1.239 3.282 .373 1.747 0 0M-1.848 7.467 .033 7.46 .021 4.651C.369 5.114 .767 5.557 1.212 5.991 3.46 8.151 6.168 9.224 9.328 9.21 12.502 9.199 15.2 8.104 17.425 5.919 19.65 3.737 20.755 1.103 20.742-1.988 20.733-5.062 19.604-7.686 17.362-9.861 15.121-12.032 12.411-13.11 9.241-13.103 6.079-13.091 3.384-11.988 1.154-9.802 .709-9.365 .313-8.914-.033-8.454L-.076-20.118-1.956-20.114Z" fill="#2f3640"/>
<path transform="matrix(1,0,0,-1,335.1494,331.28703)" d="M0 0C.371-.356 .554-.785 .554-1.285 .549-1.799 .365-2.231-.008-2.583-.381-2.935-.82-3.109-1.336-3.106-1.852-3.106-2.291-2.928-2.656-2.577-3.024-2.217-3.207-1.788-3.205-1.273-3.205-.771-3.017-.345-2.647 .006-2.276 .358-1.836 .532-1.321 .532-.806 .528-.364 .351 0 0" fill="#2f3640"/>
<path transform="matrix(1,0,0,-1,334.7393,337.8334)" d="M0 0-.076-19.955-1.954-19.948-1.877 .007Z" fill="#2f3640"/>
<path transform="matrix(1,0,0,-1,351.998,339.7235)" d="M0 0-10.585 .036-10.577 1.868 3.243 1.817-7.432-16.274 3.962-16.315 3.958-18.143-10.657-18.088Z" fill="#2f3640"/>
<path transform="matrix(1,0,0,-1,372.875,339.8026)" d="M0 0-10.588 .042-10.577 1.87 3.244 1.817-7.435-16.269 3.963-16.31 3.955-18.142-10.658-18.085Z" fill="#2f3640"/>
<path transform="matrix(1,0,0,-1,399.0508,340.04283)" d="M0 0C-1.62 1.226-3.514 1.847-5.673 1.854-8.271 1.865-10.504 .974-12.36-.813-14.217-2.604-15.153-4.77-15.166-7.319-15.175-9.42-14.553-11.263-13.308-12.854ZM-12.037-14.202C-10.278-15.777-8.18-16.569-5.743-16.58-3.126-16.591-.889-15.694 .966-13.9 1.206-13.672 1.43-13.439 1.639-13.191L3.622-13.889C3.257-14.379 2.839-14.841 2.383-15.292 .133-17.461-2.577-18.542-5.751-18.534-8.911-18.52-11.606-17.417-13.838-15.226-16.071-13.039-17.18-10.397-17.17-7.311-17.159-4.237-16.023-1.613-13.778 .563-11.528 2.735-8.826 3.815-5.662 3.804-2.948 3.797-.58 2.994 1.446 1.398 1.778 1.129 2.113 .826 2.445 .5 2.567 .381 2.686 .255 2.797 .134L1.372-1.243Z" fill="#2f3640"/>
<path transform="matrix(1,0,0,-1,407.7402,338.09953)" d="M0 0 1.882-.007 1.865-3.646C2.255-3.104 2.712-2.587 3.229-2.087 4.89-.478 6.593 .358 8.333 .436L8.325-1.559C7.145-1.603 5.913-2.243 4.646-3.475 2.855-5.188 1.923-7.249 1.845-9.662L1.803-19.967-.076-19.958Z" fill="#2f3640"/>
<path transform="matrix(1,0,0,-1,423.3711,331.6122)" d="M0 0C.368-.356 .549-.782 .547-1.285 .547-1.8 .362-2.231-.011-2.584-.38-2.935-.82-3.109-1.337-3.106-1.854-3.102-2.294-2.928-2.66-2.573-3.025-2.221-3.212-1.788-3.208-1.273-3.205-.771-3.019-.345-2.65 .006-2.283 .358-1.838 .532-1.322 .532-.811 .532-.365 .35 0 0" fill="#2f3640"/>
<path transform="matrix(1,0,0,-1,422.9609,338.15953)" d="M0 0-.079-19.955-1.956-19.947-1.878 .008Z" fill="#2f3640"/>
<path transform="matrix(1,0,0,-1,449.8457,349.4335)" d="M0 0 .013 3.619C-.323 5.411-1.189 6.982-2.577 8.344-4.422 10.15-6.649 11.063-9.266 11.071-11.885 11.078-14.124 10.186-15.977 8.392-17.837 6.595-18.773 4.425-18.78 1.876-18.79-.669-17.872-2.846-16.03-4.648-14.188-6.449-11.955-7.355-9.336-7.363-6.722-7.374-4.488-6.478-2.627-4.684-1.231-3.337-.353-1.773 0 0M1.848-8.784-.035-8.781-.019-4.714C-.386-5.187-.775-5.639-1.21-6.073-3.465-8.243-6.173-9.325-9.345-9.314-12.502-9.303-15.199-8.204-17.436-6.012-19.665-3.822-20.773-1.191-20.765 1.884-20.752 4.973-19.623 7.604-17.371 9.775-15.125 11.952-12.419 13.032-9.26 13.021-6.083 13.006-3.384 11.908-1.152 9.717-.722 9.284-.327 8.829 .033 8.351L.041 11.179 1.927 11.167Z" fill="#2f3640"/>
<path transform="matrix(1,0,0,-1,216.4092,425.1351)" d="M0 0C2.893 2.87 5.785 5.733 8.678 8.605 14.881 14.763 21.088 20.925 27.293 27.082 33.111 32.854 38.927 38.629 44.745 44.401 46.633 46.271 48.516 48.143 50.403 50.015 51.187 50.789 51.638 51.824 51.638 52.917 51.638 54.499 50.776 55.562 49.548 56.464 45.922 59.136 42.037 61.29 37.85 63 34.264 64.464 30.564 65.349 26.715 65.849 20.624 66.636 14.307 65.949 8.471 64.094 4.152 62.722-.021 60.754-3.774 58.262-5.018 57.438-6.22 56.55-7.375 55.621-8.787 54.481-9.839 52.964-10.948 51.562-15.636 45.634-19.177 38.619-20.263 31.159-21.152 25.028-20.665 18.845-18.692 12.944-17.25 8.632-15.149 4.493-12.508 .757-11.213-1.066-9.823-2.898-8.223-4.491-7.635-5.078-6.802-5.588-6.143-6.084-5.292-6.719-4.426-7.34-3.541-7.941-1.968-9.01-.335-9.992 1.347-10.889 4.533-12.588 7.948-13.982 11.456-14.91 17.408-16.496 23.653-16.613 29.678-15.348 38.318-13.539 46.201-8.616 52.365-2.563 53.782-1.17 55.117 .313 56.311 1.895 53.688 2.584 51.066 3.276 48.445 3.966 47.774-1.713 47.14-7.395 46.361-13.063 46.411-12.693 46.46-12.334 46.51-11.971 45.24-21.185 43.68-30.412 41.078-39.371 40.162-42.529 39.097-45.658 37.787-48.682 37.929-48.355 38.069-48.023 38.212-47.701 37.551-49.217 36.826-50.711 36.008-52.154 35.62-52.844 35.206-53.514 34.767-54.174 34.56-54.492 34.342-54.803 34.118-55.109 33.855-55.48 32.914-56.668 34.048-55.244 33.209-56.299 32.272-57.283 31.228-58.143 31.111-58.238 30.994-58.33 30.878-58.418 30.449-58.752 31.881-57.67 31.447-57.994 31.377-58.045 31.307-58.098 31.232-58.146 30.975-58.33 30.706-58.504 30.437-58.67 29.904-58.996 29.345-59.27 28.767-59.514 29.103-59.373 29.439-59.236 29.773-59.1 28.887-59.461 27.963-59.705 27.012-59.836 27.385-59.787 27.76-59.736 28.133-59.689 27.136-59.813 26.133-59.807 25.135-59.68 25.51-59.734 25.885-59.779 26.258-59.83 24.932-59.656 23.648-59.281 22.414-58.781 22.75-58.922 23.085-59.059 23.423-59.199 21.523-58.418 19.767-57.355 18.113-56.166 18.001-56.084 17.889-55.998 17.777-55.918 17.251-55.533 18.701-56.615 18.177-56.217 17.947-56.041 17.717-55.861 17.491-55.682 16.974-55.271 16.472-54.844 15.975-54.408 14.924-53.494 13.915-52.531 12.939-51.539 10.725-49.305 8.7-46.879 6.641-44.506 1.2-38.229-4.151-31.873-9.48-25.498-16.165-17.498-22.791-9.457-29.369-1.373-32.785 2.822-36.188 7.031-39.573 11.251-41.23 13.321-42.886 15.393-44.537 17.469-44.728 17.713-44.925 17.958-45.121 18.205-45.546 18.741-44.421 17.328-44.848 17.862-44.947 17.987-45.045 18.109-45.138 18.231-45.557 18.757-45.975 19.286-46.394 19.814-47.181 20.809-47.972 21.812-48.762 22.814-54.292 29.845-59.776 36.913-65.059 44.118-66.98 46.737-68.874 49.375-70.685 52.069-71.865 53.831-73.046 55.606-74.008 57.493-74.128 57.734-74.246 57.978-74.356 58.226-74.211 57.9-74.072 57.575-73.929 57.246-74.078 57.589-74.225 57.956-74.279 58.329-74.228 57.963-74.178 57.604-74.128 57.235-74.366 59.085-74.246 61.031-73.995 62.87-74.045 62.506-74.095 62.141-74.145 61.777-73.809 64.187-73.125 66.532-72.162 68.775-72.303 68.45-72.445 68.116-72.586 67.791-71.37 70.592-69.733 73.201-67.837 75.612-68.979 74.166-68.001 75.399-67.705 75.75-67.432 76.075-67.16 76.394-66.878 76.716-66.332 77.333-65.766 77.94-65.186 78.533-63.988 79.757-62.726 80.916-61.419 82.036-60.744 82.61-60.056 83.168-59.359 83.715-59.02 83.984-58.674 84.249-58.332 84.508-59.807 83.39-58.34 84.498-57.951 84.775-56.436 85.874-54.876 86.909-53.285 87.902-49.94 89.984-46.449 91.841-42.871 93.526-41.085 94.362-39.279 95.154-37.447 95.909-37.783 95.767-38.118 95.627-38.458 95.494-30.552 98.728-22.314 101.189-13.933 102.938-10.38 103.679-6.795 104.285-3.194 104.755-3.567 104.708-3.944 104.659-4.315 104.61 3.937 105.684 12.312 106.054 20.617 105.406 22.224 105.284 23.825 105.118 25.42 104.911 25.048 104.958 24.672 105.007 24.3 105.055 30.101 104.292 35.853 102.964 41.258 100.756 40.92 100.893 40.585 101.029 40.249 101.17 43.305 99.916 46.241 98.369 48.922 96.463 49.079 96.356 49.232 96.245 49.386 96.13 50.119 95.598 48.466 96.83 49.063 96.375 49.39 96.126 49.709 95.875 50.028 95.615 50.627 95.125 51.213 94.605 51.774 94.073 52.336 93.548 52.877 92.993 53.395 92.424 53.647 92.152 53.886 91.88 54.126 91.594 54.242 91.457 54.362 91.313 54.479 91.168 55.051 90.473 53.719 92.138 54.273 91.427 55.738 89.548 56.948 87.483 57.897 85.308 57.756 85.636 57.611 85.967 57.471 86.289 58.577 83.731 59.298 81.029 59.688 78.281 59.638 78.644 59.586 79.01 59.534 79.372 59.789 77.527 59.895 75.661 59.874 73.8 61.991 74.98 64.106 76.165 66.225 77.348 54.589 85.88 40.473 90.307 26.027 91.302 11.682 92.293-2.904 89.829-16.529 85.533-30.167 81.233-43.236 75.024-55.193 67.335-56.906 66.233-58.601 65.093-60.267 63.925-61.193 63.273-61.894 62.574-62.206 61.467-62.507 60.409-62.351 59.25-61.779 58.301-60.702 56.508-57.878 55.518-56.007 56.831-46.414 63.555-36.032 69.219-25.148 73.704-25.484 73.567-25.822 73.43-26.159 73.29-15.377 77.718-4.057 81 7.548 82.537 7.173 82.488 6.8 82.436 6.428 82.388 14.69 83.465 23.081 83.636 31.354 82.554 30.979 82.602 30.606 82.655 30.233 82.702 36.54 81.865 42.729 80.287 48.604 77.896 48.268 78.033 47.932 78.174 47.594 78.31 52.709 76.209 57.532 73.504 61.965 70.251 63.131 69.401 65.039 69.578 66.225 70.251 67.52 70.988 68.298 72.346 68.314 73.8 68.39 81.015 66.616 88.36 62.431 94.392 58.457 100.119 52.773 104.508 46.382 107.448 39.102 110.801 31.303 112.512 23.33 113.373 15.127 114.258 6.816 114.064-1.378 113.178-10.31 112.211-19.144 110.495-27.747 107.957-36.034 105.511-44.156 102.329-51.77 98.307-58.558 94.72-65.069 90.343-70.512 84.986-75.402 80.168-79.469 74.385-81.438 67.834-82.364 64.764-82.789 61.479-82.641 58.281-82.594 57.261-82.536 56.213-82.15 55.258-81.746 54.256-81.291 53.29-80.758 52.35-77.886 47.267-74.26 42.542-70.78 37.846-65.279 30.435-59.598 23.151-53.869 15.907-47.048 7.275-40.145-1.299-33.183-9.828-26.675-17.795-20.124-25.73-13.515-33.619-8.393-39.729-3.244-45.828 1.998-51.84 4.401-54.596 6.796-57.34 9.533-59.799 13.107-63.016 17.216-65.955 21.943-67.322 25.868-68.453 29.897-68.08 33.567-66.369 36.978-64.775 39.617-61.83 41.705-58.84 44.09-55.418 45.772-51.521 47.215-47.65 48.781-43.449 49.971-39.111 50.985-34.746 53.145-25.469 54.479-16.018 55.646-6.58 56.076-3.063 56.472 .45 56.886 3.966 57.096 5.754 55.444 7.486 53.787 7.93 51.814 8.456 50.161 7.548 49.023 6.04 48.59 5.468 49.763 6.968 49.485 6.625 49.308 6.393 49.121 6.177 48.933 5.953 48.255 5.162 47.538 4.391 46.805 3.649 45.715 2.553 44.571 1.512 43.386 .515 43.055 .236 42.719-.035 42.381-.3 42.209-.437 42.03-.573 41.854-.71 41.766-.78 41.674-.847 41.587-.913 41.11-1.277 42.625-.139 41.98-.615 41.177-1.211 40.356-1.775 39.518-2.32 37.379-3.706 35.119-4.899 32.757-5.877 33.093-5.736 33.426-5.6 33.762-5.461 30.876-6.642 27.851-7.475 24.745-7.883 25.118-7.842 25.493-7.787 25.866-7.738 22.961-8.111 20.027-8.106 17.12-7.738 17.495-7.785 17.87-7.838 18.241-7.881 14.909-7.439 11.676-6.527 8.578-5.26 8.914-5.395 9.253-5.533 9.589-5.676 6.162-4.248 2.946-2.408-.078-.3-.484-.018-.883 .271-1.28 .562-1.483 .713-2.204 1.262-1.234 .521-1.437 .678-1.637 .836-1.838 .991-1.993 1.113-2.158 1.225-2.3 1.361-2.461 1.523-2.623 1.693-2.776 1.867-3.081 2.199-3.377 2.539-3.667 2.883-3.854 3.102-4.036 3.322-4.218 3.542-4.264 3.604-4.313 3.662-4.363 3.726-4.685 4.126-3.58 2.733-3.903 3.144-4.025 3.301-4.147 3.458-4.268 3.616-5.339 5.013-6.319 6.471-7.216 7.978-8.157 9.55-8.996 11.189-9.729 12.865-9.588 12.54-9.443 12.214-9.303 11.885-10.68 15.063-11.66 18.397-12.137 21.824-12.087 21.457-12.035 21.09-11.988 20.728-12.398 23.766-12.406 26.841-11.998 29.882-12.05 29.52-12.098 29.153-12.149 28.792-11.704 31.995-10.798 35.114-9.518 38.093-9.661 37.767-9.8 37.439-9.945 37.113-8.368 40.728-6.269 44.09-3.822 47.211-4.554 46.274-3.968 47.018-3.82 47.203-3.646 47.415-3.477 47.621-3.303 47.825-2.95 48.246-2.588 48.661-2.223 49.072-2.121 49.187-2.067 49.256-1.966 49.345-1.77 49.513-1.57 49.678-1.373 49.838-1.21 49.967-1.048 50.096-.883 50.222-.785 50.3-.687 50.374-.592 50.444-1.906 49.449-1.515 49.753-1.23 49.963-1.156 50.018-1.081 50.074-1.007 50.13-.441 50.544 .133 50.94 .717 51.321 2.296 52.362 3.947 53.29 5.645 54.129 6.541 54.573 7.455 54.98 8.379 55.362 8.043 55.225 7.708 55.087 7.372 54.952 10.741 56.327 14.271 57.305 17.897 57.782 17.522 57.734 17.147 57.682 16.774 57.638 20.077 58.056 23.415 58.059 26.715 57.63 26.347 57.682 25.97 57.729 25.595 57.778 29.044 57.315 32.396 56.387 35.607 55.077 35.268 55.213 34.935 55.35 34.597 55.491 38.422 53.908 41.977 51.806 45.288 49.372 45.004 51.521 44.72 53.671 44.434 55.821 41.546 52.953 38.651 50.082 35.759 47.214 29.554 41.053 23.349 34.9 17.141 28.739 11.325 22.971 5.508 17.195-.309 11.423-2.196 9.55-4.083 7.681-5.967 5.812-7.577 4.211-7.604 1.594-5.967 0-4.353-1.568-1.607-1.597 0 0" fill="#2f3640"/>
<path transform="matrix(1,0,0,-1,262.2559,329.32313)" d="M0 0C-12.074 4.541-25.202 6.586-38.124 6.275-50.367 5.988-62.496 3.704-74.082-.114-85.461-3.867-96.363-8.965-106.549-15.164-108.714-16.477-110.844-17.845-112.938-19.263-113.862-19.885-113.796-20.902-113.315-21.775-112.59-23.099-111.244-24.114-109.965-24.883-108.364-25.845-106.557-26.571-104.698-26.896-103.536-27.1-101.881-27.263-100.826-26.553-91.295-20.117-81.056-14.665-70.295-10.438-70.075-10.35-69.855-10.264-69.636-10.179-69.969-10.309-70.299-10.438-70.632-10.563-59.616-6.316-48.04-3.359-36.225-2.289-36.108-2.283-35.99-2.271-35.872-2.26-36.312-2.297-36.751-2.339-37.188-2.375-30.937-1.84-24.639-1.84-18.396-2.457-18.916-2.405-19.434-2.354-19.956-2.301-15.678-2.735-11.433-3.456-7.264-4.476-7.84-4.336-8.413-4.195-8.987-4.052-5.623-4.884-2.32-5.909 .918-7.126 2.27-7.633 4.078-7.9 5.52-7.593 6.489-7.386 7.376-6.767 7.237-5.684 7.08-4.425 5.928-3.341 4.994-2.594 3.485-1.391 1.799-.677 0 0" fill="#2f3640"/>
</g>
</g>
</svg>
